<svg width="16" height="16" viewBox="0 0 16 16" fill="none" xmlns="http://www.w3.org/2000/svg">
<circle cx="8" cy="8" r="7.75" stroke="white" stroke-width="0.5"/>
<g clip-path="url(#clip0_40_1150)">
<path d="M8 4.625C7.74041 4.625 7.48665 4.54802 7.27081 4.4038C7.05498 4.25959 6.88675 4.0546 6.78741 3.81477C6.68807 3.57494 6.66208 3.31104 6.71272 3.05644C6.76336 2.80184 6.88837 2.56798 7.07192 2.38442C7.25548 2.20087 7.48934 2.07586 7.74394 2.02522C7.99854 1.97458 8.26244 2.00057 8.50227 2.09991C8.7421 2.19925 8.94708 2.36748 9.0913 2.58331C9.23552 2.79915 9.3125 3.05291 9.3125 3.3125C9.31213 3.66048 9.17373 3.99411 8.92767 4.24017C8.68161 4.48623 8.34798 4.62463 8 4.625Z" fill="white"/>
<path d="M12.125 4.64372L12.1145 4.64653L12.1046 4.64958C12.0812 4.65614 12.0577 4.66317 12.0343 4.67044C11.5981 4.7984 9.48125 5.39512 7.98992 5.39512C6.60406 5.39512 4.67867 4.8795 4.06274 4.70442C4.00144 4.68072 3.93883 4.66053 3.87524 4.64395C3.42992 4.52676 3.12524 4.97911 3.12524 5.39255C3.12524 5.802 3.49321 5.997 3.86469 6.13692V6.14348L6.09641 6.84051C6.32446 6.92794 6.38539 7.01723 6.41516 7.09458C6.51196 7.34278 6.43461 7.83426 6.40719 8.00583L6.27125 9.06051L5.5168 13.19C5.51446 13.2012 5.51235 13.2127 5.51047 13.2244L5.50508 13.2542C5.45071 13.6327 5.72867 14 6.25508 14C6.71446 14 6.91719 13.6829 7.00508 13.2514C7.09297 12.8199 7.66133 9.55833 7.98946 9.55833C8.31758 9.55833 8.99352 13.2514 8.99352 13.2514C9.08141 13.6829 9.28414 14 9.74352 14C10.2713 14 10.5493 13.6311 10.4935 13.2514C10.4887 13.2195 10.4828 13.1877 10.4757 13.1562L9.71094 9.06098L9.57524 8.00629C9.47703 7.392 9.55602 7.18903 9.58274 7.14145C9.58345 7.14033 9.58408 7.13915 9.58461 7.13794C9.60992 7.09106 9.72524 6.98606 9.9943 6.88505L12.0868 6.15356C12.0997 6.15014 12.1123 6.14607 12.1248 6.14137C12.4998 6.00075 12.8748 5.80622 12.8748 5.39301C12.8748 4.97981 12.5703 4.52676 12.125 4.64372Z" fill="white"/>
</g>
<defs>
<clipPath id="clip0_40_1150">
<rect width="12" height="12" fill="white" transform="translate(2 2)"/>
</clipPath>
</defs>
</svg>
