<svg width="43" height="43" viewBox="0 0 43 43" fill="none" xmlns="http://www.w3.org/2000/svg">
<path d="M37.625 37.625L26.875 26.875M5.375 17.9167C5.375 19.5637 5.6994 21.1945 6.32968 22.7162C6.95996 24.2378 7.88377 25.6204 9.04837 26.785C10.213 27.9496 11.5956 28.8734 13.1172 29.5037C14.6388 30.1339 16.2697 30.4583 17.9167 30.4583C19.5637 30.4583 21.1945 30.1339 22.7162 29.5037C24.2378 28.8734 25.6204 27.9496 26.785 26.785C27.9496 25.6204 28.8734 24.2378 29.5037 22.7162C30.1339 21.1945 30.4583 19.5637 30.4583 17.9167C30.4583 16.2697 30.1339 14.6388 29.5037 13.1172C28.8734 11.5956 27.9496 10.213 26.785 9.04837C25.6204 7.88377 24.2378 6.95995 22.7162 6.32968C21.1945 5.6994 19.5637 5.375 17.9167 5.375C16.2697 5.375 14.6388 5.6994 13.1172 6.32968C11.5956 6.95995 10.213 7.88377 9.04837 9.04837C7.88377 10.213 6.95996 11.5956 6.32968 13.1172C5.6994 14.6388 5.375 16.2697 5.375 17.9167Z" stroke="black" stroke-width="2" stroke-linecap="round" stroke-linejoin="round"/>
</svg>
