<svg width="17" height="17" viewBox="0 0 17 17" fill="none" xmlns="http://www.w3.org/2000/svg">
<path d="M1.41667 8.49996C1.41667 12.4121 4.58788 15.5833 8.5 15.5833C12.4121 15.5833 15.5833 12.4121 15.5833 8.49996C15.5833 4.58783 12.4121 1.41663 8.5 1.41663C4.58788 1.41663 1.41667 4.58783 1.41667 8.49996Z" stroke="white" stroke-width="0.8" stroke-linecap="round" stroke-linejoin="round"/>
<path d="M9.20834 1.45203C9.20834 1.45203 11.3333 4.24994 11.3333 8.49994C11.3333 12.7499 9.20834 15.5479 9.20834 15.5479M7.79167 15.5479C7.79167 15.5479 5.66667 12.7499 5.66667 8.49994C5.66667 4.24994 7.79167 1.45203 7.79167 1.45203M1.86292 10.9791H15.1371M1.86292 6.02078H15.1371" stroke="white" stroke-width="0.8" stroke-linecap="round" stroke-linejoin="round"/>
</svg>
