<svg width="26" height="26" viewBox="0 0 26 26" fill="none" xmlns="http://www.w3.org/2000/svg">
<g id="bi:chevron-left">
<path id="Vector" fill-rule="evenodd" clip-rule="evenodd" d="M18.4502 2.67474C18.5259 2.75021 18.5859 2.83987 18.6269 2.93858C18.6679 3.03729 18.6889 3.14312 18.6889 3.24999C18.6889 3.35686 18.6679 3.46268 18.6269 3.56139C18.5859 3.6601 18.5259 3.74976 18.4502 3.82524L9.27386 13L18.4502 22.1747C18.6028 22.3273 18.6885 22.5342 18.6885 22.75C18.6885 22.9657 18.6028 23.1727 18.4502 23.3252C18.2977 23.4778 18.0907 23.5635 17.875 23.5635C17.6592 23.5635 17.4523 23.4778 17.2997 23.3252L7.54974 13.5752C7.47407 13.4998 7.41404 13.4101 7.37308 13.3114C7.33212 13.2127 7.31104 13.1069 7.31104 13C7.31104 12.8931 7.33212 12.7873 7.37308 12.6886C7.41404 12.5899 7.47407 12.5002 7.54974 12.4247L17.2997 2.67474C17.3752 2.59907 17.4649 2.53904 17.5636 2.49808C17.6623 2.45712 17.7681 2.43604 17.875 2.43604C17.9819 2.43604 18.0877 2.45712 18.1864 2.49808C18.2851 2.53904 18.3748 2.59907 18.4502 2.67474Z" fill="black"/>
</g>
</svg>
